<svg xmlns="http://www.w3.org/2000/svg" width="386.053" height="280.541" viewBox="0 0 386.053 280.541">
  <g id="Congratulations_Illustration_-_Web" data-name="Congratulations Illustration - Web" transform="translate(-280 -200.126)">
    <g id="Group_475" data-name="Group 475" transform="translate(280 218.292)">
      <g id="Group_472" data-name="Group 472" transform="translate(247.166 3.225)">
        <path id="Path_832" data-name="Path 832" d="M316.157,377.739s-51.167-222.451-4.873-210.92,43.876,81,43.876,81S365.7,106.012,401.842,122.08,394.2,259.024,394.2,259.024s41.734-47.781,36.059,24.1-28.416,95.445-28.416,95.445Z" transform="translate(-291.901 -120.811)" fill="#ecedff"/>
        <g id="Group_471" data-name="Group 471" transform="translate(0 1.269)" opacity="0.56">
          <line id="Line_104" data-name="Line 104" x2="24.268" y2="212.601" transform="translate(19.383 44.739)" fill="none" stroke="#7a8c9b" stroke-linecap="round" stroke-miterlimit="10" stroke-width="0.978"/>
          <line id="Line_105" data-name="Line 105" x1="43.193" y2="256.069" transform="translate(66.747)" fill="none" stroke="#7a8c9b" stroke-linecap="round" stroke-miterlimit="10" stroke-width="0.978"/>
          <line id="Line_106" data-name="Line 106" x1="37.314" y2="132.632" transform="translate(95.313 123.712)" fill="none" stroke="#7a8c9b" stroke-linecap="round" stroke-miterlimit="10" stroke-width="0.978"/>
          <line id="Line_107" data-name="Line 107" x2="27.76" y2="48.037" transform="translate(0 70.088)" fill="none" stroke="#7a8c9b" stroke-linecap="round" stroke-miterlimit="10" stroke-width="0.978"/>
          <line id="Line_108" data-name="Line 108" x2="30.439" y2="34.68" transform="translate(4.34 144.937)" fill="none" stroke="#7a8c9b" stroke-linecap="round" stroke-miterlimit="10" stroke-width="0.978"/>
          <line id="Line_109" data-name="Line 109" x1="19.204" y2="66.445" transform="translate(29.432 66.327)" fill="none" stroke="#7a8c9b" stroke-linecap="round" stroke-miterlimit="10" stroke-width="0.978"/>
          <line id="Line_110" data-name="Line 110" x2="18.404" y2="53.025" transform="translate(69.686 74.459)" fill="none" stroke="#7a8c9b" stroke-linecap="round" stroke-miterlimit="10" stroke-width="0.978"/>
          <line id="Line_111" data-name="Line 111" y1="31.819" x2="27.594" transform="translate(96.296 44.739)" fill="none" stroke="#7a8c9b" stroke-linecap="round" stroke-miterlimit="10" stroke-width="0.978"/>
          <line id="Line_112" data-name="Line 112" x2="9.948" y2="35.97" transform="translate(92.129 5.74)" fill="none" stroke="#7a8c9b" stroke-linecap="round" stroke-miterlimit="10" stroke-width="0.978"/>
          <line id="Line_113" data-name="Line 113" x2="13.08" y2="33.976" transform="translate(108.386 130.908)" fill="none" stroke="#7a8c9b" stroke-linecap="round" stroke-miterlimit="10" stroke-width="0.978"/>
          <line id="Line_114" data-name="Line 114" y1="10.166" x2="21.364" transform="translate(114.926 180.554)" fill="none" stroke="#7a8c9b" stroke-linecap="round" stroke-miterlimit="10" stroke-width="0.978"/>
        </g>
      </g>
      <g id="Group_474" data-name="Group 474" transform="translate(0 0)">
        <path id="Path_833" data-name="Path 833" d="M131.31,379.109S-16.677,208.063,29.9,197.732s75.4,52.923,75.4,52.923S51.474,119.036,90.988,117.292,145.24,243.264,145.24,243.264s16.035-61.381,43.02,5.479,27.523,130.365,27.523,130.365Z" transform="translate(-20.831 -117.275)" fill="#ecedff"/>
        <g id="Group_473" data-name="Group 473" transform="translate(3.03 0.018)" opacity="0.56">
          <line id="Line_115" data-name="Line 115" x2="116.564" y2="179.447" transform="translate(6.039 80.439)" fill="none" stroke="#7a8c9b" stroke-linecap="round" stroke-miterlimit="10" stroke-width="0.978"/>
          <line id="Line_116" data-name="Line 116" x2="75.579" y2="248.445" transform="translate(67.127)" fill="none" stroke="#7a8c9b" stroke-linecap="round" stroke-miterlimit="10" stroke-width="0.978"/>
          <line id="Line_117" data-name="Line 117" x2="25.774" y2="135.349" transform="translate(142.62 100.598)" fill="none" stroke="#7a8c9b" stroke-linecap="round" stroke-miterlimit="10" stroke-width="0.978"/>
          <line id="Line_118" data-name="Line 118" x2="46.275" y2="30.607" transform="translate(0 111.773)" fill="none" stroke="#7a8c9b" stroke-linecap="round" stroke-miterlimit="10" stroke-width="0.978"/>
          <line id="Line_119" data-name="Line 119" x2="42.714" y2="17.458" transform="translate(37.276 176.825)" fill="none" stroke="#7a8c9b" stroke-linecap="round" stroke-miterlimit="10" stroke-width="0.978"/>
          <line id="Line_120" data-name="Line 120" x2="12.455" y2="68.034" transform="translate(41.851 86.71)" fill="none" stroke="#7a8c9b" stroke-linecap="round" stroke-miterlimit="10" stroke-width="0.978"/>
          <line id="Line_121" data-name="Line 121" x2="40.126" y2="39.246" transform="translate(64.318 84.597)" fill="none" stroke="#7a8c9b" stroke-linecap="round" stroke-miterlimit="10" stroke-width="0.978"/>
          <line id="Line_122" data-name="Line 122" y1="40.787" x2="10.501" transform="translate(89.068 33.817)" fill="none" stroke="#7a8c9b" stroke-linecap="round" stroke-miterlimit="10" stroke-width="0.978"/>
          <line id="Line_123" data-name="Line 123" x2="24.949" y2="27.755" transform="translate(53.747 13.083)" fill="none" stroke="#7a8c9b" stroke-linecap="round" stroke-miterlimit="10" stroke-width="0.978"/>
          <line id="Line_124" data-name="Line 124" x2="26.863" y2="24.573" transform="translate(124.135 117.853)" fill="none" stroke="#7a8c9b" stroke-linecap="round" stroke-miterlimit="10" stroke-width="0.978"/>
          <line id="Line_125" data-name="Line 125" y1="18.629" x2="14.585" transform="translate(156.671 149.837)" fill="none" stroke="#7a8c9b" stroke-linecap="round" stroke-miterlimit="10" stroke-width="0.978"/>
        </g>
      </g>
    </g>
    <g id="Group_484" data-name="Group 484" transform="translate(387.17 200.126)">
      <g id="Group_483" data-name="Group 483">
        <g id="Group_476" data-name="Group 476" transform="translate(0 18.899)">
          <rect id="Rectangle_180" data-name="Rectangle 180" width="204.938" height="261.101" fill="#c41e1c"/>
          <path id="Rectangle_181" data-name="Rectangle 181" d="M11.277,0H174.248a11.276,11.276,0,0,1,11.276,11.276V225.091a11.276,11.276,0,0,1-11.276,11.276H11.277A11.277,11.277,0,0,1,0,225.091V11.277A11.277,11.277,0,0,1,11.277,0Z" transform="translate(9.706 12.367)" fill="#f9f8f4"/>
        </g>
        <path id="Path_834" data-name="Path 834" d="M277.674,110.954H267.555A6.352,6.352,0,0,1,261.2,104.6v-.9a6.351,6.351,0,0,0-6.351-6.352H239.51a6.351,6.351,0,0,0-6.352,6.352v.9a6.352,6.352,0,0,1-6.352,6.352H216.688a6.352,6.352,0,0,0-6.352,6.352V128.8a6.352,6.352,0,0,0,6.352,6.353h60.986a6.352,6.352,0,0,0,6.352-6.353V117.305A6.351,6.351,0,0,0,277.674,110.954Zm-30.493-2.4a3.617,3.617,0,1,1,3.617-3.616A3.617,3.617,0,0,1,247.181,108.558Z" transform="translate(-144.712 -97.352)" fill="#665738"/>
        <g id="Group_478" data-name="Group 478" transform="translate(32.785 62.821)">
          <circle id="Ellipse_73" data-name="Ellipse 73" cx="18.212" cy="18.212" r="18.212" transform="matrix(0.159, -0.987, 0.987, 0.159, 0, 35.96)" fill="none" stroke="#edd41a" stroke-linecap="round" stroke-miterlimit="10" stroke-width="3.914"/>
          <g id="Group_477" data-name="Group 477" transform="translate(55.511 12.454)">
            <line id="Line_126" data-name="Line 126" x2="75.408" fill="none" stroke="#bbcdd9" stroke-miterlimit="10" stroke-width="2.935"/>
            <line id="Line_127" data-name="Line 127" x2="59.347" transform="translate(0 13.478)" fill="none" stroke="#bbcdd9" stroke-miterlimit="10" stroke-width="2.935"/>
          </g>
        </g>
        <g id="Group_480" data-name="Group 480" transform="translate(35.452 121.958)">
          <circle id="Ellipse_74" data-name="Ellipse 74" cx="18.212" cy="18.212" r="18.212" fill="none" stroke="#bbcdd9" stroke-miterlimit="10" stroke-width="2.935"/>
          <g id="Group_479" data-name="Group 479" transform="translate(52.844 9.787)">
            <line id="Line_128" data-name="Line 128" x2="75.408" fill="none" stroke="#bbcdd9" stroke-miterlimit="10" stroke-width="2.935"/>
            <line id="Line_129" data-name="Line 129" x2="59.347" transform="translate(0 13.478)" fill="none" stroke="#bbcdd9" stroke-miterlimit="10" stroke-width="2.935"/>
          </g>
        </g>
        <g id="Group_482" data-name="Group 482" transform="translate(35.452 178.427)">
          <circle id="Ellipse_75" data-name="Ellipse 75" cx="18.212" cy="18.212" r="18.212" fill="none" stroke="#bbcdd9" stroke-miterlimit="10" stroke-width="2.935"/>
          <g id="Group_481" data-name="Group 481" transform="translate(52.844 9.787)">
            <line id="Line_130" data-name="Line 130" x2="75.408" fill="none" stroke="#bbcdd9" stroke-miterlimit="10" stroke-width="2.935"/>
            <line id="Line_131" data-name="Line 131" x2="59.347" transform="translate(0 13.478)" fill="none" stroke="#bbcdd9" stroke-miterlimit="10" stroke-width="2.935"/>
          </g>
        </g>
      </g>
      <path id="Path_835" data-name="Path 835" d="M189.316,184.357l7.428,7.19,22.57-22.194" transform="translate(-142.859 -103.701)" fill="none" stroke="#fda29d" stroke-linecap="round" stroke-miterlimit="10" stroke-width="2.935"/>
      <path id="Path_836" data-name="Path 836" d="M189.316,244.314l7.428,7.19,22.57-22.194" transform="translate(-142.859 -108.988)" fill="none" stroke="#fda29d" stroke-linecap="round" stroke-miterlimit="10" stroke-width="2.935"/>
      <path id="Path_837" data-name="Path 837" d="M189.316,305.25l7.428,7.19,22.57-22.194" transform="translate(-142.859 -114.362)" fill="none" stroke="#fda29d" stroke-linecap="round" stroke-miterlimit="10" stroke-width="2.935"/>
    </g>
  </g>
</svg>
