<?xml version="1.0" encoding="UTF-8"?>
<!DOCTYPE svg PUBLIC "-//W3C//DTD SVG 1.1//EN" "http://www.w3.org/Graphics/SVG/1.1/DTD/svg11.dtd">
<!-- Creator: CorelDRAW X6 -->
<svg xmlns="http://www.w3.org/2000/svg" xml:space="preserve" width="91.44mm" height="91.44mm" version="1.1" style="shape-rendering:geometricPrecision; text-rendering:geometricPrecision; image-rendering:optimizeQuality; fill-rule:evenodd; clip-rule:evenodd"
viewBox="0 0 9144 9144"
 xmlns:xlink="http://www.w3.org/1999/xlink">
 <defs>
  <style type="text/css">
   <![CDATA[
    .str0 {stroke:#2B2A29;stroke-width:20}
    .fil0 {fill:none}
    .fil1 {fill:#2B2A29;fill-rule:nonzero}
    .fil2 {fill:#C12622;fill-rule:nonzero}
    .fil4 {fill:url(#id0)}
    .fil5 {fill:url(#id1)}
    .fil6 {fill:url(#id2)}
    .fil7 {fill:url(#id3)}
    .fil3 {fill:url(#id4)}
   ]]>
  </style>
  <linearGradient id="id0" gradientUnits="userSpaceOnUse" x1="2478.68" y1="3918.13" x2="4495.58" y2="5868.93">
   <stop offset="0" style="stop-color:#401E18"/>
   <stop offset="1" style="stop-color:#DC3426"/>
  </linearGradient>
  <linearGradient id="id1" gradientUnits="userSpaceOnUse" xlink:href="#id0" x1="6420.76" y1="6063.17" x2="7189.1" y2="1360.91">
  </linearGradient>
  <linearGradient id="id2" gradientUnits="userSpaceOnUse" xlink:href="#id0" x1="4404.23" y1="6086.08" x2="4986.11" y2="2525.02">
  </linearGradient>
  <linearGradient id="id3" gradientUnits="userSpaceOnUse" x1="2410.5" y1="6059.33" x2="2791.54" y2="3727.34">
   <stop offset="0" style="stop-color:#401E18"/>
   <stop offset="1" style="stop-color:#DB2326"/>
  </linearGradient>
  <linearGradient id="id4" gradientUnits="userSpaceOnUse" xlink:href="#id0" x1="3912.01" y1="3244.96" x2="7243.93" y2="5366.99">
  </linearGradient>
 </defs>
 <g id="Layer_x0020_1">
  <metadata id="CorelCorpID_0Corel-Layer"/>
  <rect class="fil0 str0" width="9144" height="9144"/>
  <polygon class="fil1" points="1499,6755 1319,6995 1298,6995 1122,6754 1122,7157 1017,7157 1017,6603 1137,6603 1311,6841 1484,6603 1604,6603 1604,7157 1499,7157 "/>
  <path class="fil1" d="M1979 6718l-103 236 206 0 -103 -236zm145 333l-290 0 -48 104 -113 0 249 -554 114 0 249 554 -114 0 -47 -104z"/>
  <polygon class="fil1" points="2726,6601 2830,6601 2830,7156 2765,7156 2765,7157 2474,6783 2474,7156 2369,7156 2369,6602 2454,6602 2726,6946 "/>
  <path class="fil1" d="M3366 6737c-37,-36 -93,-55 -141,-55 -119,0 -191,90 -191,204 0,91 53,185 191,185 44,0 82,-10 125,-44l0 -98 -142 0 0 -93 237 0 0 233c-55,63 -123,100 -221,100 -208,0 -293,-137 -293,-283 0,-156 97,-300 293,-300 74,0 149,28 206,85l-65 66z"/>
  <path class="fil1" d="M3809 6718l-103 236 206 0 -103 -236zm145 333l-290 0 -47 104 -113 0 249 -554 114 0 249 554 -114 0 -47 -104z"/>
  <polygon class="fil1" points="4304,6602 4304,7059 4589,7059 4589,7156 4200,7156 4200,6602 "/>
  <polygon class="fil1" points="5326,6605 5079,6870 5346,7150 5346,7156 5217,7156 4985,6911 4985,7156 4881,7156 4881,6602 4985,6602 4985,6836 5196,6602 5326,6602 "/>
  <polygon class="fil1" points="5841,7156 5427,7156 5427,6602 5841,6602 5841,6703 5530,6703 5530,6831 5830,6831 5830,6928 5530,6928 5530,7053 5841,7053 "/>
  <path class="fil1" d="M6310 6736c-19,-32 -71,-62 -131,-62 -78,0 -115,32 -115,74 0,48 57,62 123,70 116,14 223,44 223,177 0,123 -109,176 -233,176 -113,0 -200,-35 -241,-136l87 -45c25,61 89,88 156,88 66,0 127,-23 127,-83 0,-52 -55,-74 -128,-82 -113,-13 -218,-44 -218,-168 0,-114 112,-161 214,-161 86,0 176,25 218,110l-83 43z"/>
  <polygon class="fil1" points="6898,7157 6898,6933 6626,6933 6626,7157 6521,7157 6521,6603 6626,6603 6626,6836 6898,6836 6898,6603 7001,6603 7001,7157 "/>
  <path class="fil1" d="M7377 6718l-103 236 206 0 -103 -236zm145 333l-290 0 -47 104 -113 0 249 -554 114 0 249 554 -114 0 -47 -104z"/>
  <polygon class="fil1" points="7922,7158 7813,7158 7583,6602 7700,6602 7867,7033 8035,6602 8152,6602 "/>
  <polygon class="fil2" points="1001,7453 1185,7679 1185,7453 1206,7453 1206,7726 1197,7726 1013,7501 1013,7726 992,7726 992,7453 "/>
  <path class="fil2" d="M1507 7453l0 170c0,143 -209,143 -209,0l0 -170 21 0 0 170c0,118 168,117 168,0l0 -170 21 0z"/>
  <path class="fil2" d="M1618 7603l97 0c48,0 69,-27 69,-65 0,-32 -21,-65 -67,-65l-99 0 0 130zm197 123l-28 0 -94 -103 -75 0 0 103 -21 0 0 -273 120 0c59,0 89,43 90,85 0,44 -29,84 -89,84l96 105z"/>
  <polygon class="fil2" points="1971,7472 1872,7472 1872,7454 2091,7454 2091,7472 1992,7472 1992,7726 1971,7726 "/>
  <path class="fil2" d="M2379 7453l0 170c0,143 -209,143 -209,0l0 -170 21 0 0 170c0,118 168,117 168,0l0 -170 21 0z"/>
  <path class="fil2" d="M2490 7603l97 0c48,0 69,-27 69,-65 0,-32 -21,-65 -67,-65l-99 0 0 130zm197 123l-28 0 -94 -103 -75 0 0 103 -21 0 0 -273 120 0c59,0 89,43 90,85 0,44 -29,84 -89,84l96 105z"/>
  <polygon class="fil2" points="2754,7453 2774,7453 2774,7726 2754,7726 "/>
  <polygon class="fil2" points="2875,7453 3059,7679 3059,7453 3080,7453 3080,7726 3072,7726 2888,7501 2888,7726 2866,7726 2866,7453 "/>
  <path class="fil2" d="M3388 7504c-24,-23 -57,-35 -88,-35 -80,0 -121,59 -121,122 0,64 41,120 121,120 29,0 60,-10 83,-32l0 -77 -95 0 0 -18 115 0 0 102c-28,29 -62,44 -103,44 -93,0 -141,-65 -141,-139 0,-86 58,-141 141,-141 36,0 72,14 100,41l-12 13z"/>
  <polygon class="fil2" points="3799,7453 3811,7453 3894,7703 3979,7453 4001,7453 3905,7727 3882,7727 3839,7599 3805,7491 3770,7598 3727,7727 3704,7727 3608,7453 3631,7453 3715,7703 "/>
  <polygon class="fil2" points="4090,7579 4250,7579 4250,7598 4090,7598 4090,7706 4263,7706 4263,7726 4070,7726 4070,7453 4258,7453 4258,7473 4090,7473 "/>
  <path class="fil2" d="M4520 7640l-73 -166 -73 166 147 0zm38 87l-30 -67 -163 0 -30 67 -23 0 123 -273 23 0 123 273 -23 0z"/>
  <polygon class="fil2" points="4673,7453 4673,7707 4826,7707 4826,7726 4652,7726 4652,7453 "/>
  <polygon class="fil2" points="4935,7472 4836,7472 4836,7454 5055,7454 5055,7472 4956,7472 4956,7726 4935,7726 "/>
  <polygon class="fil2" points="5322,7726 5322,7602 5148,7602 5148,7726 5126,7726 5126,7453 5148,7453 5148,7583 5322,7583 5322,7453 5343,7453 5343,7726 "/>
  <path class="fil2" d="M5458 7715c0,2 0,4 -1,7l-16 40 -17 0 12 -32c-5,-2 -9,-7 -9,-14 0,-20 31,-20 31,0z"/>
  <path class="fil2" d="M5859 7506c-20,-32 -52,-37 -83,-37 -32,0 -83,12 -83,55 0,35 37,43 84,52 53,10 107,20 107,78 0,62 -62,76 -108,76 -43,0 -91,-18 -112,-59l19 -9c17,33 60,50 93,50 34,0 87,-9 87,-58 0,-41 -45,-50 -90,-59 -50,-10 -101,-20 -101,-70 -1,-58 59,-76 104,-76 39,0 73,6 100,47l-17 10z"/>
  <polygon class="fil2" points="5961,7453 5982,7453 5982,7726 5961,7726 "/>
  <polygon class="fil2" points="6083,7453 6267,7679 6267,7453 6288,7453 6288,7726 6279,7726 6095,7501 6095,7726 6074,7726 6074,7453 "/>
  <path class="fil2" d="M6606 7689c-27,27 -64,41 -100,41 -92,0 -140,-64 -141,-138 -1,-73 47,-141 141,-141 36,0 72,14 100,41l-14 13c-23,-23 -54,-35 -85,-35 -80,0 -121,56 -120,122 1,64 41,119 120,119 31,0 62,-12 85,-35l14 13z"/>
  <polygon class="fil2" points="6707,7579 6867,7579 6867,7598 6707,7598 6707,7706 6880,7706 6880,7726 6686,7726 6686,7453 6875,7453 6875,7473 6707,7473 "/>
  <polygon class="fil2" points="7073,7708 7119,7708 7119,7472 7073,7472 7073,7453 7140,7453 7140,7708 7186,7708 7186,7726 7073,7726 "/>
  <path class="fil2" d="M7276 7534c0,48 47,65 86,65 39,0 87,-20 87,-65 0,-49 -48,-65 -87,-65 -39,0 -86,14 -86,64zm174 46c-22,31 -54,39 -88,39 -52,0 -107,-24 -107,-84 0,-62 55,-84 107,-84 52,0 108,23 108,85l0 119c0,52 -52,76 -104,76 -55,0 -101,-23 -104,-69l21 0c2,33 38,50 83,50 41,0 84,-19 84,-57l0 -75z"/>
  <path class="fil2" d="M7550 7520c0,-57 56,-70 102,-70 65,0 100,32 101,72 0,31 -26,58 -58,64 33,6 63,34 63,67 0,43 -36,77 -105,77 -47,0 -107,-14 -107,-73l20 0c0,49 52,53 87,53 57,0 85,-26 85,-57 0,-29 -29,-59 -85,-59l-45 0 0 -18 44 0c54,0 82,-29 82,-55 0,-28 -27,-55 -81,-55 -33,0 -82,6 -82,53l-20 0z"/>
  <path class="fil2" d="M7843 7534c0,48 47,65 86,65 39,0 87,-20 87,-65 0,-49 -48,-65 -87,-65 -39,0 -86,14 -86,64zm174 46c-22,31 -54,39 -88,39 -52,0 -107,-24 -107,-84 0,-62 55,-84 107,-84 52,0 108,23 108,85l0 119c0,52 -52,76 -104,76 -55,0 -101,-23 -104,-69l21 0c2,33 38,50 83,50 41,0 84,-19 84,-57l0 -75z"/>
  <polygon class="fil3" points="4081,3455 5671,6041 7075,4694 5732,2571 "/>
  <polygon class="fil4" points="2564,4274 3673,6041 4410,5168 3542,3746 "/>
  <polygon class="fil5" points="6286,2281 5671,6041 7177,6041 7939,1383 "/>
  <polygon class="fil6" points="5165,6040 3659,6040 4081,3455 5732,2571 "/>
  <polygon class="fil7" points="1661,6041 3166,6041 3542,3746 1890,4638 "/>
 </g>
</svg>
